<svg xmlns="http://www.w3.org/2000/svg" viewBox="0 0 297 297">
  <g transform="translate(16.3, 16.3) scale(0.89)">
<path id="myPath" d="M 53.046 34.7424 A 148.5 148.5 90 1 0 148.5 0" stroke="#0057b7" stroke-linecap="round" stroke-width="16" fill="#ffffff" fill-opacity="0.0"/>
<path d="m 184.5267 51.48 c -0.4369 0.0056 -0.8851 0.027 -1.3303 0.0619 c -17.7327 3.0608 -27.4828 21.8118 -28.8956 38.3471 c -2.0645 15.0041 4.5476 34.2889 21.0221 37.6509 c 2.3896 0.455 4.8726 0.2471 7.2084 -0.3867 c 19.8381 -6.652 28.7158 -30.147 25.8483 -49.6083 c -0.8336 -12.5692 -10.3087 -26.2376 -23.8528 -26.0649 z m -75.1781 0.8044 c -11.0261 0.2707 -19.6152 11.4535 -21.3624 21.9656 c -3.6832 20.8268 5.7907 46.7042 27.488 53.2899 c 2.0323 0.442 4.1345 0.4875 6.1875 0.1702 c 14.6651 -2.4441 20.8776 -18.8862 20.2641 -32.1596 c -0.4414 -17.5094 -9.5366 -37.7552 -27.72 -42.6783 c -1.6621 -0.4407 -3.282 -0.6265 -4.8572 -0.5878 z m 123.2241 59.1525 c -19.0745 1.1412 -32.1516 20.1731 -34.0158 37.9449 c -2.5243 12.8174 4.3089 29.9606 18.9337 30.9839 c 20.3924 -0.2514 34.304 -22.0416 34.8821 -40.7911 c 1.2899 -12.4004 -6.0147 -27.4529 -19.8 -28.1377 z m -166.9542 4.223 c -8.115 -0.0698 -16.0962 4.791 -18.7481 13.0402 c -7.0749 22.0666 7.1324 50.0139 30.5044 54.6511 c 9.7543 1.6692 18.325 -5.8216 20.7436 -14.8346 c 5.1255 -19.2777 -5.4021 -41.6618 -23.2186 -50.4127 c -2.9026 -1.629 -6.1058 -2.4167 -9.2813 -2.4441 z m 85.5113 39.5691 c -15.909 0.0339 -32.0675 8.1072 -42.3689 20.1249 c -11.1263 14.0071 -20.2406 30.3071 -23.8064 47.9841 c -4.3319 12.7247 5.4863 27.3688 19.0884 27.4571 c 16.3642 0.4546 30.428 -10.7826 46.7002 -11.6171 c 13.8056 -2.1046 26.1672 5.0763 38.5791 9.7762 c 10.5679 4.52 25.1709 2.7878 30.5663 -8.5852 c 4.2439 -11.5923 -2.0027 -23.953 -7.1775 -34.2478 c -10.5545 -16.7097 -21.8617 -34.2717 -39.1669 -44.7047 c -6.9364 -4.2994 -14.6447 -6.2041 -22.4142 -6.1875 Z" fill="#0057b7"/>
  </g>
</svg>